<svg xmlns="http://www.w3.org/2000/svg" viewBox="0 0 420 297" width="1260" height="891">
<rect width="420" height="297" fill="white"/>
<rect x="0.0" y="0.0" width="420.0" height="297.0" stroke="#1a1a1a" fill="none" stroke-width="1.5"/>
<!-- TOP VIEW -->
<polygon points="120.0,180.0 119.9,182.0 119.6,183.9 119.1,185.8 118.5,187.7 117.6,189.4 116.6,191.1 115.5,192.7 114.1,194.1 112.7,195.5 111.1,196.6 109.4,197.6 107.7,198.5 105.8,199.1 103.9,199.6 102.0,199.9 100.0,200.0 98.0,199.9 96.1,199.6 94.2,199.1 92.3,198.5 90.6,197.6 88.9,196.6 87.3,195.5 85.9,194.1 84.5,192.7 83.4,191.1 82.4,189.4 81.5,187.7 80.9,185.8 80.4,183.9 80.1,182.0 80.0,180.0 80.1,178.0 80.4,176.1 80.9,174.2 81.5,172.3 82.4,170.6 83.4,168.9 84.5,167.3 85.9,165.9 87.3,164.5 88.9,163.4 90.6,162.4 92.3,161.5 94.2,160.9 96.1,160.4 98.0,160.1 100.0,160.0 102.0,160.1 103.9,160.4 105.8,160.9 107.7,161.5 109.4,162.4 111.1,163.4 112.7,164.5 114.1,165.9 115.5,167.3 116.6,168.9 117.6,170.6 118.5,172.3 119.1,174.2 119.6,176.1 119.9,178.0" stroke="#94a3b8" fill="#94a3b820" stroke-width="0.5"/>
  <circle cx="100.0" cy="180.0" r="20.0" stroke="#1a1a1a" fill="none" stroke-width="1.2"/>
  <line x1="103.0" y1="180.0" x2="120.0" y2="180.0" stroke="#94a3b8" stroke-width="0.8"/>
  <line x1="102.1" y1="182.1" x2="114.1" y2="194.1" stroke="#94a3b8" stroke-width="0.8"/>
  <line x1="100.0" y1="183.0" x2="100.0" y2="200.0" stroke="#94a3b8" stroke-width="0.8"/>
  <line x1="97.9" y1="182.1" x2="85.9" y2="194.1" stroke="#94a3b8" stroke-width="0.8"/>
  <line x1="97.0" y1="180.0" x2="80.0" y2="180.0" stroke="#94a3b8" stroke-width="0.8"/>
  <line x1="97.9" y1="177.9" x2="85.9" y2="165.9" stroke="#94a3b8" stroke-width="0.8"/>
  <line x1="100.0" y1="177.0" x2="100.0" y2="160.0" stroke="#94a3b8" stroke-width="0.8"/>
  <line x1="102.1" y1="177.9" x2="114.1" y2="165.9" stroke="#94a3b8" stroke-width="0.8"/>
  <line x1="76.0" y1="180.0" x2="124.0" y2="180.0" stroke="#2563eb" stroke-width="0.8" stroke-dasharray="12,4,2,4"/>
  <line x1="100.0" y1="156.0" x2="100.0" y2="204.0" stroke="#2563eb" stroke-width="0.8" stroke-dasharray="12,4,2,4"/>
  <line x1="80.0" y1="180.0" x2="120.0" y2="180.0" stroke="#16a34a" stroke-width="0.6"/>
  <text x="100.0" y="176.0" fill="#16a34a" font-family="monospace" font-size="9px" text-anchor="middle">Ř80 cm</text>
  <text x="85.0" y="209.0" fill="#334155" font-family="monospace" font-size="10.5px" text-anchor="start">TOP VIEW</text>
<!-- FRONT VIEW -->
<polygon points="274.4,190.6 285.6,190.6 291.0,167.5 269.0,167.5" stroke="#94a3b8" fill="#94a3b820" stroke-width="0.5"/>
  <polygon points="260.0,197.5 300.0,197.5 300.0,195.5 260.0,195.5" stroke="#1a1a1a" fill="none" stroke-width="1.0"/>
  <polygon points="274.4,195.5 285.6,195.5 285.6,190.6 274.4,190.6" stroke="#1a1a1a" fill="none" stroke-width="1.0"/>
  <polygon points="274.4,190.6 285.6,190.6 291.0,167.5 269.0,167.5" stroke="#1a1a1a" fill="none" stroke-width="1.0"/>
  <polygon points="269.0,167.5 291.0,167.5 291.0,162.5 269.0,162.5" stroke="#94a3b8" fill="none" stroke-width="1.0" stroke-dasharray="6,3"/>
  <line x1="280.0" y1="157.5" x2="280.0" y2="202.5" stroke="#2563eb" stroke-width="0.8" stroke-dasharray="12,4,2,4"/>
  <line x1="269.0" y1="157.5" x2="291.0" y2="157.5" stroke="#16a34a" stroke-width="0.6"/>
  <text x="280.0" y="153.5" fill="#16a34a" font-family="monospace" font-size="9px" text-anchor="middle">Ř44 cm</text>
  <line x1="310.0" y1="162.5" x2="310.0" y2="197.5" stroke="#16a34a" stroke-width="0.6"/>
  <text x="310.0" y="176.0" fill="#16a34a" font-family="monospace" font-size="9px" text-anchor="middle">H = 70 cm</text>
  <line x1="306.0" y1="196.5" x2="300.0" y2="197.5" stroke="#0891b2" stroke-width="0.8"/>
  <polygon points="300.0,197.5 304.3,198.8 303.6,194.9" stroke="#0891b2" fill="#0891b2" stroke-width="0.5"/>
  <text x="311.0" y="193.5" fill="#0891b2" font-family="monospace" font-size="8px" text-anchor="start">SOLID WOOD TOP</text>
  <line x1="306.0" y1="179.0" x2="291.0" y2="179.0" stroke="#0891b2" stroke-width="0.8"/>
  <polygon points="291.0,179.0 295.0,181.0 295.0,177.0" stroke="#0891b2" fill="#0891b2" stroke-width="0.5"/>
  <text x="311.0" y="176.0" fill="#0891b2" font-family="monospace" font-size="8px" text-anchor="start">TEXTURED PEDESTAL BASE</text>
  <text x="260.0" y="207.5" fill="#334155" font-family="monospace" font-size="10.5px" text-anchor="start">FRONT VIEW</text>
  <text x="254.0" y="165.0" fill="#334155" font-family="monospace" font-size="7.0px" text-anchor="start">(EST.)</text>
<rect x="230.0" y="10.0" width="180.0" height="60.0" stroke="#7c3aed" fill="none" stroke-width="1.0"/>
<line x1="230.0" y1="25.0" x2="410.0" y2="25.0" stroke="#7c3aed" stroke-width="0.5"/>
<line x1="230.0" y1="40.0" x2="410.0" y2="40.0" stroke="#7c3aed" stroke-width="0.5"/>
<line x1="230.0" y1="55.0" x2="410.0" y2="55.0" stroke="#7c3aed" stroke-width="0.5"/>
<line x1="347.0" y1="10.0" x2="347.0" y2="70.0" stroke="#7c3aed" stroke-width="0.5"/>
<text x="233.0" y="66.0" fill="#7c3aed" font-family="monospace" font-size="7px" text-anchor="start">PROJECT: Furniture Shop Drawing</text>
<text x="350.0" y="66.0" fill="#7c3aed" font-family="monospace" font-size="7px" text-anchor="start">CLIENT: MARCO</text>
<text x="233.0" y="51.0" fill="#7c3aed" font-family="monospace" font-size="7px" text-anchor="start">DRAWING: Round Pedestal Table %%c80 x H70</text>
<text x="233.0" y="36.0" fill="#7c3aed" font-family="monospace" font-size="7px" text-anchor="start">SCALE: 1:2  DATE: 2026-06-24</text>
<text x="350.0" y="36.0" fill="#7c3aed" font-family="monospace" font-size="7px" text-anchor="start">REV: A</text>
<text x="233.0" y="14.0" fill="#7c3aed" font-family="monospace" font-size="7px" text-anchor="start">DRAWN: AI CAD Drafter</text>
<text x="12.0" y="279.0" fill="#334155" font-family="monospace" font-size="9px" text-anchor="start">MATERIAL / FINISH NOTES:</text>
<text x="12.0" y="273.0" fill="#334155" font-family="monospace" font-size="7px" text-anchor="start">  1. WOOD TOP — Solid hardwood, stained finish</text>
<text x="12.0" y="268.0" fill="#334155" font-family="monospace" font-size="7px" text-anchor="start">  2. PEDESTAL BASE — Textured hammered metal, black powder coat</text>
<text x="12.0" y="263.0" fill="#334155" font-family="monospace" font-size="7px" text-anchor="start">  3. NECK RING — Brushed stainless steel</text>
<text x="12.0" y="252.0" fill="#334155" font-family="monospace" font-size="9px" text-anchor="start">GENERAL NOTES:</text>
<text x="12.0" y="246.0" fill="#334155" font-family="monospace" font-size="7px" text-anchor="start">  1. ALL DIMENSIONS IN CENTIMETERS (CM) UNLESS NOTED</text>
<text x="12.0" y="241.0" fill="#334155" font-family="monospace" font-size="7px" text-anchor="start">  2. TOLERANCES: +/- 2mm UNLESS OTHERWISE SPECIFIED</text>
</svg>